<svg width="231" height="52" viewBox="0 0 231 52" fill="none" xmlns="http://www.w3.org/2000/svg">
<g clip-path="url(#clip0_4477_163)">
<path d="M27.37 51.5L25.75 47.05C25.1254 48.1098 24.235 48.9882 23.167 49.5985C22.0989 50.2088 20.8901 50.5299 19.66 50.53H18.46V45.8C17.5136 46.5868 16.3765 47.1102 15.1634 47.3173C13.9502 47.5245 12.7039 47.4082 11.55 46.98L10.42 46.57L12.03 42.13C10.8697 42.5384 9.62283 42.637 8.41273 42.416C7.20262 42.1951 6.07111 41.6622 5.13 40.87L4.2 40.09L7.2 36.47C5.98034 36.4492 4.7868 36.1132 3.73543 35.4947C2.68405 34.8761 1.8106 33.9961 1.2 32.94L0.599998 31.94L4.69 29.58C3.53917 29.1485 2.52071 28.4245 1.73508 27.4793C0.949461 26.5341 0.423816 25.4004 0.209999 24.19L0 23L4.65 22.18C4.20269 21.7922 3.80321 21.3524 3.46 20.87C2.92326 20.1103 2.54335 19.2511 2.34246 18.3428C2.14157 17.4345 2.12374 16.4953 2.29 15.58L2.5 14.39L7.13 15.17C6.84282 14.6529 6.62111 14.102 6.47 13.53C6.22696 12.633 6.16369 11.6967 6.28382 10.7751C6.40395 9.85355 6.70512 8.96481 7.17 8.16004L7.78 7.16004L11.86 9.52004C11.7696 8.93454 11.7495 8.34033 11.8 7.75004C11.8773 6.82408 12.1381 5.92276 12.5674 5.09866C12.9966 4.27456 13.5856 3.54415 14.3 2.95004L15.22 2.17004L18.22 5.79004C18.3315 5.21029 18.5128 4.64618 18.76 4.11004C19.1499 3.26464 19.7044 2.5055 20.3913 1.87705C21.0781 1.2486 21.8834 0.763465 22.76 0.450043L23.9 0.0400391L25.51 4.48004C26.1361 3.42165 27.0268 2.54431 28.0945 1.93419C29.1622 1.32406 30.3703 1.00215 31.6 1.00004H32.8V5.73004C33.7513 4.94871 34.8899 4.42894 36.1035 4.22201C37.317 4.01508 38.5635 4.12814 39.72 4.55004L40.85 4.96004L39.23 9.40004C39.789 9.20516 40.3702 9.08087 40.96 9.03004C41.8868 8.94436 42.8215 9.04439 43.7092 9.32427C44.5969 9.60415 45.4199 10.0583 46.13 10.66L47.05 11.43L44.05 15.05C44.6448 15.0505 45.2368 15.1312 45.81 15.29C46.7088 15.5297 47.5514 15.9446 48.2893 16.5109C49.0272 17.0773 49.646 17.7838 50.11 18.59L50.71 19.59L46.63 21.95C47.1825 22.1607 47.7066 22.4395 48.19 22.78C48.9599 23.3074 49.6166 23.9833 50.1215 24.7681C50.6264 25.5529 50.9693 26.4308 51.13 27.35L51.34 28.53L46.69 29.35C47.1398 29.7391 47.5395 30.1825 47.88 30.67C48.4154 31.4286 48.7946 32.286 48.9955 33.1925C49.1964 34.099 49.2149 35.0363 49.05 35.95L48.84 37.14L44.13 36.32C44.4205 36.8368 44.6455 37.3877 44.8 37.96C45.0503 38.8548 45.12 39.7904 45.0049 40.7124C44.8899 41.6344 44.5925 42.5242 44.13 43.33L43.53 44.33L39.43 41.97C39.6377 43.1821 39.5225 44.4275 39.0959 45.5809C38.6693 46.7342 37.9464 47.7549 37 48.54L36.08 49.32L33.08 45.7C32.9682 46.2842 32.7834 46.852 32.53 47.39C32.1391 48.2336 31.584 48.9908 30.8972 49.6175C30.2105 50.2442 29.4057 50.7278 28.53 51.04L27.37 51.5ZM26.74 43.44L28.63 48.64C29.4651 48.1396 30.1278 47.3966 30.53 46.51C30.8069 45.9261 30.9646 45.2928 30.9938 44.6472C31.023 44.0015 30.9231 43.3566 30.7 42.75L26.74 31.87V43.44ZM20.62 42.74V48.27C21.7428 48.0563 22.7562 47.4583 23.4861 46.5788C24.216 45.6992 24.6169 44.593 24.62 43.45V31.87L20.62 42.74ZM32.72 42.01L36.28 46.24C36.9899 45.3515 37.3707 44.2448 37.358 43.1076C37.3452 41.9703 36.9396 40.8725 36.21 40L28.77 31.13L32.72 42.01ZM13.22 45.19C14.1788 45.3432 15.1616 45.2038 16.04 44.79C17.2236 44.2413 18.1409 43.2449 18.59 42.02L22.59 31.13L15.13 40L13.22 45.19ZM37.86 38.61L42.65 41.37C43.0145 40.2938 42.9945 39.1244 42.5933 38.0613C42.1922 36.9982 41.4347 36.1071 40.45 35.54L30.45 29.74L37.86 38.61ZM7.32 39.77C8.3182 40.3124 9.47286 40.4942 10.5894 40.2847C11.706 40.0753 12.7163 39.4874 13.45 38.62L20.89 29.74L10.89 35.53L7.32 39.77ZM41.52 33.66L46.97 34.66C46.9845 33.6657 46.6911 32.6911 46.13 31.87C45.7595 31.3442 45.2887 30.8968 44.7447 30.5536C44.2006 30.2103 43.5941 29.978 42.96 29.87L31.5 27.87L41.52 33.66ZM3.63 32.66C4.3789 33.5158 5.40265 34.0839 6.52511 34.2664C7.64757 34.4489 8.79855 34.2345 9.78 33.66L19.78 27.87L8.42 29.87L3.63 32.66ZM2.63 24.66C3.0426 25.7186 3.80885 26.6018 4.79864 27.1596C5.78844 27.7173 6.94077 27.9154 8.06 27.72L19.47 25.72L8.07 23.72L2.63 24.66ZM31.91 25.66L43.3 27.66L48.75 26.66C48.3357 25.6 47.568 24.7155 46.5768 24.1561C45.5856 23.5967 44.4316 23.3968 43.31 23.59L31.91 25.66ZM4.35 16.87C4.36462 17.8443 4.67116 18.7918 5.23 19.59C5.98374 20.6511 7.12719 21.3702 8.41 21.59L19.81 23.59L9.79 17.87L4.35 16.87ZM43.98 17.17C43.1157 17.1818 42.2701 17.4234 41.53 17.87L31.53 23.66L42.93 21.66L47.69 18.87C47.0453 18.1417 46.2 17.6199 45.26 17.37C44.8448 17.2438 44.4139 17.1765 43.98 17.17ZM8.66 10.17C8.29677 11.2478 8.31738 12.4181 8.71833 13.4824C9.11929 14.5468 9.87592 15.4398 10.86 16.01L20.86 21.8L13.45 12.87L8.66 10.17ZM41.66 11.17H41.22C40.5762 11.2147 39.948 11.3882 39.3726 11.6802C38.7971 11.9723 38.2862 12.3769 37.87 12.87L30.42 21.74L40.42 15.95L43.98 11.72C43.2631 11.3259 42.4581 11.1195 41.64 11.12L41.66 11.17ZM37.37 6.29004C36.3602 6.28948 35.3748 6.60027 34.5481 7.18007C33.7213 7.75986 33.0934 8.58046 32.75 9.53004L28.75 20.41L36.18 11.55L38.08 6.35004C37.8399 6.29445 37.5958 6.25767 37.35 6.24004L37.37 6.29004ZM15.05 5.29004C14.3517 6.17655 13.9787 7.27579 13.9933 8.40419C14.0078 9.53259 14.4091 10.6218 15.13 11.49L22.58 20.36L18.58 9.49004L15.05 5.29004ZM22.69 2.87004C21.7154 3.45936 20.976 4.36917 20.5983 5.44368C20.2207 6.51819 20.2284 7.69056 20.62 8.76004L24.62 19.64V8.05004L22.69 2.87004ZM30.69 3.24004C29.5672 3.45376 28.5538 4.05174 27.8239 4.93129C27.094 5.81084 26.6931 6.91707 26.69 8.06004V19.62L30.69 8.75004V3.24004Z" fill="#C2A251"/>
<path d="M64.5805 22.03C64.5739 21.5137 64.4544 21.0052 64.2305 20.54V20.46H68.6105C71.6905 20.46 73.9805 21.31 73.9805 23.67C73.9584 24.4653 73.6629 25.2286 73.1438 25.8315C72.6247 26.4344 71.9137 26.84 71.1305 26.98C73.3905 27.32 75.0405 28.61 75.0405 30.71C75.0405 33.42 72.3805 34.59 69.2105 34.59H64.5805V22.03ZM68.4305 26.72C70.5005 26.72 71.2505 25.63 71.2505 24.07C71.2505 22.07 70.0605 21.41 68.3505 21.41C68.0156 21.4113 67.6813 21.438 67.3505 21.49V26.49C67.3505 26.68 67.4405 26.7 67.6605 26.7L68.4305 26.72ZM67.4305 33.1C67.4305 33.5 68.1605 33.6 68.8205 33.6C70.9505 33.6 71.9605 32.71 71.9605 30.79C71.9605 28.49 70.5505 27.71 68.1105 27.71H67.4305V33.1Z" fill="#C2A251"/>
<path d="M77.8701 34.5901C78.3094 33.8119 78.7066 33.0108 79.0601 32.1901L84.6301 20.0801H85.6301L90.6301 31.3401C91.0301 32.2101 92.0401 34.3401 92.7201 34.5301V34.5901H89.1801L87.2401 30.2501H81.4301L80.3101 32.7901C79.9401 33.6201 79.6301 34.3901 80.0701 34.5301V34.5901H77.8701ZM86.8701 29.1801L84.4301 23.6901L82.0001 29.1801H86.8701Z" fill="#C2A251"/>
<path d="M108.43 32.8701C107.705 33.5658 106.844 34.103 105.9 34.4473C104.957 34.7917 103.952 34.9357 102.95 34.8701C98.3495 34.8701 94.7695 32.2901 94.7695 27.5001C94.7695 22.7101 98.3995 20.2401 103.35 20.2401C104.965 20.1893 106.576 20.4403 108.1 20.9801L108.23 23.9801H108.13C107.614 23.1104 106.869 22.3989 105.977 21.9229C105.085 21.4468 104.079 21.2245 103.07 21.2801C99.4095 21.2801 97.8095 23.8801 97.8095 27.1501C97.8095 31.0701 100.25 33.6301 104.21 33.6301C105.577 33.6905 106.931 33.3424 108.1 32.6301L108.43 32.8701ZM99.8895 16.7001L100.6 16.6001L103.19 18.0401L105.77 16.6001L106.45 16.7001L104.21 19.2701H102.13L99.8895 16.7001Z" fill="#C2A251"/>
<path d="M112.96 22.03C112.954 21.5137 112.834 21.0052 112.61 20.54V20.46H115.78V26.87C116.94 26.87 118.18 25.54 119.34 24.28C120.75 22.79 121.92 21.28 122.53 20.51H124.82L118.53 27.07C120.73 28.38 124.27 34.38 125.53 34.58V34.64H121.77C120.85 33.41 117.77 29.45 116.95 28.64C116.67 28.2771 116.263 28.0341 115.81 27.96V32.76C115.81 33.11 115.87 34.6 116.38 34.6V34.66H112.99L112.96 22.03Z" fill="#C2A251"/>
<path d="M129.24 22.03C129.233 21.5137 129.114 21.0052 128.89 20.54V20.46H132.06V32.69C132.06 33.04 132.12 34.53 132.63 34.53V34.59H129.24V22.03Z" fill="#C2A251"/>
<path d="M149.61 21.87C149.604 21.3525 149.481 20.8431 149.25 20.3801V20.3H154.25C159.75 20.3 163.95 22.11 163.95 27.3C163.95 32.23 160.14 34.4501 155.22 34.4501H149.63L149.61 21.87ZM154.69 33.4C159 33.4 160.85 31.5801 160.85 27.6301C160.85 23.2901 158.58 21.29 153.98 21.29C153.65 21.29 152.98 21.29 152.42 21.29V32.75C152.42 33.34 152.86 33.44 153.81 33.44L154.69 33.4Z" fill="#C2A251"/>
<path d="M168.66 21.87C168.653 21.3538 168.533 20.8453 168.31 20.3801V20.3H171.47V28.01C171.47 31.66 173.01 33.26 175.96 33.26C180.25 33.26 180.54 30.19 180.54 26.94V22.2001C180.54 21.8701 180.54 20.4801 180.1 20.4201V20.34H181.97V27.34C181.97 32.51 180.19 34.6701 175.43 34.6701C170.43 34.6701 168.66 32.2901 168.66 28.1301V21.87Z" fill="#C2A251"/>
<path d="M187.51 21.87C187.504 21.3538 187.384 20.8453 187.16 20.3801V20.3H190.33V26.66C191.49 26.66 192.73 25.32 193.89 24.07C195.3 22.58 196.47 21.07 197.08 20.3H199.37L193.13 26.87C195.33 28.18 198.87 34.1801 200.13 34.3801V34.44H196.37C195.45 33.21 192.37 29.25 191.55 28.44C191.27 28.0772 190.863 27.8342 190.41 27.76V32.5601C190.41 32.9001 190.47 34.4 190.98 34.4V34.46H187.59L187.51 21.87Z" fill="#C2A251"/>
<path d="M202.13 34.4699C202.569 33.6918 202.966 32.8906 203.32 32.0699L208.88 19.95H209.94L214.94 31.2199C215.34 32.0899 216.35 34.22 217.03 34.41V34.4699H213.49L211.55 30.13H205.74L204.62 32.67C204.25 33.5 203.94 34.2699 204.38 34.41V34.4699H202.13ZM211.13 29.06L208.68 23.5699L206.26 29.06H211.13Z" fill="#C2A251"/>
<path d="M222.8 22.5201C222.8 21.5201 222.23 21.3701 221.11 21.3701C219.57 21.3701 218.11 21.7501 217.78 23.2001H217.7L217.81 20.3401H230.55L230.66 23.2001H230.59C230.28 21.7501 228.81 21.3701 227.27 21.3701C226.14 21.3701 225.59 21.5501 225.59 22.5201V32.6301C225.59 32.9801 225.66 34.4101 226.17 34.4101V34.4701H222.8V22.5201Z" fill="#C2A251"/>
</g>
<defs>
<clipPath id="clip0_4477_163">
<rect width="230.65" height="51.5" fill="white"/>
</clipPath>
</defs>
</svg>
